<?xml version="1.0" encoding="UTF-8"?>
<svg width="4029px" height="3665px" viewBox="0 0 4029 3665" version="1.1" xmlns="http://www.w3.org/2000/svg" xmlns:xlink="http://www.w3.org/1999/xlink">
    <!-- Generator: Sketch 52.6 (67491) - http://www.bohemiancoding.com/sketch -->
    <title>Group 35</title>
    <desc>Created with Sketch.</desc>
    <g id="Page-1" stroke="none" stroke-width="1" fill="none" fill-rule="evenodd">
        <g id="Group-39" transform="translate(-1488.000000, -3429.000000)" fill="#000000">
            <g id="Group-35" transform="translate(1488.000000, 3429.000000)">
                <path d="M2411.85991,1631.68306 C2812.75578,1427.86365 3112.98563,1274.14744 3312.54946,1170.53442 C3369.73917,1140.84167 3434.30609,1098.79895 3434.30609,1055.51893 L3434.30609,1006.25115 C3230.87163,1069.10819 3030.69053,1048.37169 2913.94719,934.751879 C2735.57717,761.154256 2820.08755,420.880113 3102.02011,193.954037 C3383.95266,-32.9720387 3756.54527,-60.61776 3934.91529,112.979863 C4113.2853,286.577486 4029.33126,611.266097 3747.39871,838.192173 C3716.64351,862.946879 3684.80283,885.515618 3652.24794,905.855376 L3652.54563,1816.65425 C3652.66638,1816.5837 3652.78713,1816.51316 3652.90789,1816.4426 C3654.95433,1938.1525 3622.90212,2015.06975 3556.75127,2047.19435 L1453.67559,3120.56601 C1290.83178,3200.96527 1290.83178,3051.04476 1290.83178,3021.76484 C1290.83178,2847.17492 1290.83178,2400.72454 1290.83178,2276.91218 C1290.83178,2222.30648 1273.00148,2200.04069 1237.46872,2199.19014 C1159.2924,2236.70204 937.004667,2367.69338 710.47272,2476.84219 C652.661434,2504.69713 588.693756,2548.5792 588.693756,2591.86017 L588.693756,2652.36262 C784.085674,2589.10124 977.032233,2605.11955 1094.30672,2711.48577 C1278.73002,2878.75498 1206.17877,3206.11332 932.258982,3442.6611 C658.339192,3679.20887 286.778708,3735.37025 102.355412,3568.10105 C-82.0678834,3400.83184 -9.51663972,3073.4735 264.40315,2836.92572 C298.536809,2807.44906 334.186644,2780.77346 370.801613,2756.98221 L370.801613,1718.25896 C378.933958,1655.15953 427.527795,1598.13415 516.583126,1547.18282 C682.832735,1452.06623 1347.51812,1134.07877 1424.40938,1100.18432 C1490.63863,1070.98978 1493.13473,1153.03764 1491.6766,1182.30289 C1485.31238,1310.03461 1491.6766,1803.43061 1491.6766,1927.26039 C1491.6766,1940.83216 1492.03248,1953.25474 1492.90561,1964.50987 L1492.90561,1964.50986 C1505.18029,2019.14687 1527.95192,2050.53192 1568.82129,2041.46086 C1646.33577,2024.25632 1715.12106,1982.67735 2009.05059,1834.45867 C2197.43997,1739.4603 2193.938,1702.84399 2193.938,1656.8178 L2193.938,1625.6493 C1997.45244,1690.02551 1803.04297,1674.37494 1685.10705,1567.46852 C1500.6034,1400.21986 1573.13444,1072.95874 1847.10964,836.510353 C2121.08485,600.061961 2492.7554,543.964493 2677.25904,711.213152 C2861.76269,878.46181 2789.23165,1205.72293 2515.25645,1442.17132 C2482.05655,1470.82378 2447.42208,1496.82792 2411.85991,1520.10724 L2411.85991,1631.68306 Z M1945.22232,1493.96558 C2094.17577,1594.4428 2319.46606,1520.89868 2448.42228,1329.70019 C2577.3785,1138.50171 2561.16755,902.05184 2412.2141,801.574627 C2263.26066,701.097414 2037.97036,774.641534 1909.01414,965.840017 C1780.05792,1157.0385 1796.26887,1393.48837 1945.22232,1493.96558 Z M3197.6576,864.927839 C3350.02667,960.14509 3572.61325,878.782717 3694.81863,683.199893 C3817.02402,487.617069 3792.57152,251.877031 3640.20245,156.65978 C3487.83338,61.4425299 3265.2468,142.804903 3143.04141,338.387727 C3020.83602,533.970551 3045.28852,769.710589 3197.6576,864.927839 Z M1517,2365.29258 L1517,2920 L3307.14067,2002.14805 C3388.0887,1960.64388 3439,1877.32707 3439,1786.35905 L3439,1285 L1612.97656,2209.15067 C1554.1081,2238.944 1517,2299.31425 1517,2365.29258 Z M576,1847.51857 L576,2352 L1192.1822,2018.57184 C1256.76239,1983.62624 1297,1916.102 1297,1842.67315 L1297,1362 L689.727164,1663.95858 C620.053429,1698.60295 576,1769.70686 576,1847.51857 Z M361.004535,3482.3078 C513.709414,3581.48226 734.153113,3513.03798 853.379317,3329.43322 C972.605522,3145.82845 945.465694,2916.5906 792.760815,2817.41613 C640.055936,2718.24167 419.612238,2786.68595 300.386033,2970.29071 C181.159829,3153.89548 208.299657,3383.13333 361.004535,3482.3078 Z" id="Combined-Shape"></path>
            </g>
        </g>
    </g>
</svg>